<?xml version="1.0"?>
<svg version="1.1" xmlns="http://www.w3.org/2000/svg" width="400px" height="50px" style=""><path fill="#e94949" d="M51.04248046875,37.04833984375q0-3.70849609375,0.333251953125-7.425537109375t1.392822265625-7.322998046875q0.3076171875-1.07666015625,0.80322265625-2.127685546875t1.21337890625-1.871337890625t1.708984375-1.3330078125t2.3583984375-0.5126953125l0.35888671875,0.0341796875q1.4697265625,0.205078125,2.17041015625,1.187744140625t0.70068359375,2.452392578125q0,0.39306640625-0.093994140625,0.982666015625t-0.299072265625,1.136474609375t-0.555419921875,0.931396484375t-0.880126953125,0.384521484375q-0.2392578125-0.0341796875-0.435791015625-0.08544921875t-0.367431640625-0.22216796875q0.2734375-0.59814453125,0.487060546875-1.24755859375t0.213623046875-1.48681640625q0-0.3076171875-0.05126953125-0.7861328125t-0.196533203125-0.948486328125t-0.384521484375-0.8203125t-0.66650390625-0.350341796875q-1.07666015625,0-1.8115234375,1.204833984375t-1.23046875,3.076171875t-0.73486328125,4.1357421875t-0.367431640625,4.375t-0.145263671875,3.81103515625t-0.01708984375,2.401123046875q0,0.8203125-0.01708984375,1.8115234375l0,0.22216796875q0.01708984375,0.87158203125,0.11962890625,1.65771484375q0.13671875,0.888671875,0.52978515625,1.5380859375t1.23046875,0.751953125q0.25634765625,0.0341796875,0.49560546875,0.0341796875q0.9912109375,0,1.79443359375-0.56396484375q0.9912109375-0.70068359375,1.76025390625-1.820068359375t1.3671875-2.4609375t1.102294921875-2.537841796875t0.982666015625-1.982421875t0.9912109375-0.7861328125q0.1708984375,0,0.5126953125,0.068359375t0.341796875,0.32470703125q0,0.068359375-0.0341796875,0.18798828125t-0.08544921875,0.18798828125q-0.46142578125,1.8115234375-1.170654296875,3.759765625t-1.8115234375,3.546142578125t-2.7001953125,2.606201171875t-3.836669921875,1.00830078125q-1.6064453125,0-2.606201171875-0.606689453125t-1.5380859375-1.62353515625t-0.73486328125-2.298583984375t-0.196533203125-2.59765625z M69.254614257812,31.34033203125q0-0.70068359375,0.247802734375-1.17919921875t1.051025390625-0.478515625q0.3076171875,0,0.76904296875,0.093994140625t0.52978515625,0.469970703125q0.1708984375,1.00830078125,0.18798828125,2.1875t0.11962890625,2.2216796875q0.39306640625-0.76904296875,1.00830078125-1.65771484375t1.4013671875-1.640625t1.708984375-1.24755859375t1.8798828125-0.49560546875q0.068359375,0,0.25634765625,0.05126953125t0.350341796875,0.145263671875t0.196533203125,0.213623046875t-0.18798828125,0.22216796875q-0.068359375,0.205078125-0.29052734375,0.247802734375t-0.39306640625,0.042724609375q-0.1025390625,0-0.32470703125-0.08544921875q-1.2646484375,0.66650390625-2.1533203125,1.8115234375t-1.45263671875,2.537841796875t-0.8203125,2.939453125t-0.25634765625,3.016357421875q0,0.73486328125-0.333251953125,0.888671875t-1.068115234375,0.15380859375q-0.39306640625,0-0.828857421875-0.08544921875t-0.606689453125-0.546875q-0.3076171875-0.97412109375-0.504150390625-2.23876953125t-0.299072265625-2.606201171875t-0.145263671875-2.640380859375t-0.042724609375-2.34130859375z M81.399853515625,36.12548828125q0-1.162109375,0.316162109375-2.23876953125t0.948486328125-1.922607421875t1.580810546875-1.35009765625t2.196044921875-0.504150390625q0.76904296875,0,1.700439453125,0.230712890625t1.751708984375,0.68359375t1.3671875,1.153564453125t0.546875,1.6064453125q0,0.42724609375-0.145263671875,0.6494140625t-0.589599609375,0.22216796875l-0.18798828125-0.0341796875q0.49560546875,1.3330078125,0.8544921875,2.734375t0.70068359375,2.802734375q0.13671875,0.2734375,0.205078125,0.487060546875t0.068359375,0.418701171875q0,0.2734375-0.15380859375,0.452880859375t-0.401611328125,0.264892578125t-0.5126953125,0.11962890625t-0.469970703125,0.0341796875q-0.73486328125,0-1.102294921875-0.25634765625t-0.52978515625-0.70068359375t-0.196533203125-0.999755859375t-0.13671875-1.119384765625q-0.205078125,0.66650390625-0.538330078125,1.298828125t-0.7861328125,1.136474609375t-1.068115234375,0.80322265625t-1.38427734375,0.299072265625q-1.1279296875,0-1.89697265625-0.6494140625t-1.239013671875-1.597900390625t-0.68359375-2.025146484375t-0.213623046875-1.99951171875z M83.826611328125,35.88623046875q0,0.63232421875,0.08544921875,1.3330078125t0.281982421875,1.38427734375t0.504150390625,1.290283203125t0.76904296875,1.068115234375q0.83740234375-0.90576171875,1.239013671875-2.20458984375t0.7177734375-2.503662109375t0.7177734375-2.06787109375t1.239013671875-0.863037109375q0.52978515625,0,0.888671875,0.18798828125q-0.1708984375-0.42724609375-0.56396484375-0.828857421875t-0.880126953125-0.73486328125t-1.00830078125-0.546875t-0.982666015625-0.213623046875q-0.13671875,0-0.316162109375,0.042724609375t-0.281982421875,0.008544921875q-0.70068359375,0.205078125-1.153564453125,0.709228515625t-0.73486328125,1.187744140625t-0.401611328125,1.4013671875t-0.11962890625,1.35009765625z M95.510424804687,29.76806640625q0-0.13671875,0.162353515625-0.247802734375t0.367431640625-0.162353515625t0.418701171875-0.068359375t0.316162109375-0.01708984375q0.76904296875,0,1.31591796875,0.68359375t0.948486328125,1.751708984375t0.68359375,2.3583984375t0.538330078125,2.572021484375t0.504150390625,2.349853515625t0.555419921875,1.649169921875q0.52978515625-1.04248046875,0.965576171875-2.51220703125t0.80322265625-3.0419921875t0.6494140625-3.101806640625t0.452880859375-2.674560546875q0.068359375-0.3076171875,0.42724609375-0.384521484375t0.59814453125-0.076904296875q0.39306640625,0,0.68359375,0.111083984375t0.29052734375,0.487060546875q0,0.63232421875-0.15380859375,1.717529296875t-0.418701171875,2.435302734375t-0.615234375,2.7685546875t-0.751953125,2.691650390625t-0.83740234375,2.255859375t-0.863037109375,1.392822265625q-0.205078125,0.2392578125-0.640869140625,0.333251953125t-0.726318359375,0.093994140625q-1.00830078125,0-1.6748046875-0.52978515625l0,0.0341796875q-1.04248046875-0.97412109375-1.5380859375-2.37548828125t-0.7177734375-2.92236328125t-0.401611328125-3.02490234375t-0.606689453125-2.734375q-0.068359375-0.13671875-0.1708984375-0.401611328125t-0.2392578125-0.52978515625t-0.230712890625-0.504150390625t-0.093994140625-0.3759765625z M108.988671875,36.826171875q0-1.1962890625,0.264892578125-2.81982421875t0.897216796875-3.076171875t1.666259765625-2.469482421875t2.606201171875-1.016845703125q1.4697265625,0,2.20458984375,0.845947265625t0.73486328125,2.281494140625q0,0.93994140625-0.350341796875,2.059326171875t-0.999755859375,2.119140625t-1.5380859375,1.666259765625t-1.982421875,0.66650390625l-0.4443359375-0.0341796875q0,0.46142578125,0.13671875,1.239013671875t0.401611328125,1.546630859375t0.68359375,1.35009765625t1.016845703125,0.5810546875q0.87158203125,0,1.6748046875-0.70068359375t1.52099609375-1.55517578125t1.3330078125-1.55517578125t1.1279296875-0.70068359375q0.2734375,0,0.56396484375,0.08544921875t0.32470703125,0.478515625q0,0.2392578125-0.128173828125,0.39306640625t-0.230712890625,0.341796875q-0.52978515625,0.90576171875-1.153564453125,1.72607421875t-1.409912109375,1.48681640625t-1.717529296875,1.051025390625t-2.059326171875,0.384521484375q-1.4697265625,0-2.44384765625-0.521240234375t-1.572265625-1.4013671875t-0.863037109375-2.03369140625t-0.264892578125-2.418212890625z M112.04775390625,35.52734375l0.478515625,0.42724609375q0.341796875,0.3076171875,0.68359375,0.13671875t0.615234375-0.623779296875t0.504150390625-1.119384765625t0.41015625-1.3671875t0.264892578125-1.3671875t0.08544921875-1.11083984375l0-0.5810546875t-0.05126953125-0.615234375t-0.179443359375-0.487060546875t-0.401611328125-0.247802734375q-0.08544921875-0.01708984375-0.15380859375-0.01708984375q-0.5810546875,0-0.9912109375,0.73486328125q-0.4443359375,0.8203125-0.7177734375,1.990966796875t-0.39306640625,2.401123046875t-0.15380859375,1.845703125z M123.30432128906,39.62890625q0.1025390625-2.7685546875,0.179443359375-5.673828125t0.145263671875-5.733642578125t0.1025390625-5.494384765625t0.0341796875-4.97314453125q0.0341796875-0.46142578125,0.80322265625-0.73486328125t1.837158203125-0.401611328125t2.255859375-0.162353515625t2.110595703125-0.0341796875q0.205078125,0,0.8544921875-0.01708984375l0.32470703125,0q0.49560546875,0,1.04248046875,0.0341796875q0.7177734375,0.05126953125,1.256103515625,0.22216796875t0.538330078125,0.49560546875q0,0.2392578125-0.18798828125,0.384521484375t-0.435791015625,0.213623046875t-0.5126953125,0.08544921875t-0.367431640625,0.01708984375q-1.6064453125,0-3.1787109375-0.05126953125q-0.42724609375-0.01708984375-0.87158203125-0.01708984375q-1.162109375,0-2.3583984375,0.1025390625q0.068359375,0.205078125,0.111083984375,1.239013671875t0.042724609375,2.332763671875t-0.01708984375,2.537841796875t0,1.905517578125l0,4.443359375q0.52978515625-0.0341796875,1.04248046875-0.0341796875l1.025390625,0l0.68359375-0.0341796875q0.341796875-0.01708984375,0.7177734375-0.01708984375q0.39306640625,0,0.80322265625,0.01708984375q0.8203125,0.0341796875,1.495361328125,0.196533203125t0.675048828125,0.572509765625q0,0.3076171875-0.25634765625,0.452880859375t-0.572509765625,0.213623046875t-0.59814453125,0.068359375l-0.316162109375,0q-0.97412109375,0-2.025146484375-0.068359375t-1.956787109375-0.068359375q-0.1708984375,0.068359375-0.367431640625,0.05126953125t-0.350341796875-0.01708984375q0,2.5634765625-0.05126953125,5.101318359375t-0.11962890625,5.050048828125q0,0.49560546875-0.623779296875,0.6494140625t-1.187744140625,0.15380859375q-0.63232421875,0-0.999755859375-0.15380859375t-0.521240234375-0.504150390625t-0.18798828125-0.931396484375q-0.01708984375-0.32470703125-0.0341796875-0.7177734375q0-0.32470703125,0.01708984375-0.70068359375z M137.24399414063,35.71533203125q0-1.572265625,0.367431640625-3.084716796875t0.623779296875-3.016357421875q0.068359375-0.39306640625,0.538330078125-0.487060546875t0.794677734375-0.093994140625q0.56396484375,0,0.90576171875,0.1708984375q0.13671875,0.068359375,0.25634765625,0.15380859375t0.11962890625,0.22216796875q0,1.4697265625-0.350341796875,2.87109375t-0.350341796875,2.9736328125q0,0.52978515625,0.076904296875,0.999755859375t0.145263671875,0.931396484375l0.1025390625,0.49560546875q0,0.13671875,0.01708984375,0.2392578125t0.05126953125,0.2392578125q0,0.3076171875-0.435791015625,0.418701171875t-0.760498046875,0.111083984375q-0.49560546875,0-0.914306640625-0.196533203125t-0.657958984375-0.675048828125l-0.2392578125-0.49560546875q-0.205078125-0.39306640625-0.205078125-0.880126953125t-0.08544921875-0.897216796875z M138.33774414063,25.42724609375l0-0.32470703125q0-0.80322265625,0.401611328125-1.435546875t1.204833984375-0.63232421875q0.1025390625,0,0.196533203125,0.01708984375t0.196533203125,0.01708984375q0.205078125,0.0341796875,0.538330078125,0.162353515625t0.333251953125,0.401611328125l0,0.0341796875q-0.068359375,0.13671875-0.08544921875,0.281982421875t-0.08544921875,0.247802734375l0.0341796875-0.0341796875q-0.205078125,0.52978515625-0.333251953125,0.8544921875t-0.281982421875,0.521240234375t-0.384521484375,0.281982421875t-0.657958984375,0.08544921875q-0.068359375,0-0.2392578125-0.01708984375t-0.367431640625-0.068359375t-0.333251953125-0.13671875t-0.13671875-0.25634765625z M144.70661621094,42.1923828125q0-0.49560546875,0.042724609375-1.04248046875t0.076904296875-1.025390625l0.1025390625-2.5634765625q0.1708984375-3.076171875,0.418701171875-6.0498046875t0.418701171875-6.015625q0.1025390625-1.6748046875,0.15380859375-3.289794921875t0.15380859375-3.289794921875q-0.068359375-0.13671875-0.068359375-0.18798828125q0-0.2392578125,0.179443359375-0.3759765625t0.418701171875-0.230712890625t0.504150390625-0.128173828125t0.401611328125-0.0341796875l0.39306640625,0q0.52978515625,0.068359375,0.76904296875,0.333251953125t0.3076171875,0.63232421875t0.0341796875,0.7861328125t-0.0341796875,0.777587890625q0,2.47802734375-0.11962890625,5.050048828125t-0.2734375,5.1611328125t-0.281982421875,5.17822265625t-0.128173828125,5.118408203125l0,1.1962890625q0,0.80322265625-0.452880859375,1.0595703125t-1.256103515625,0.25634765625q-0.70068359375,0-1.23046875-0.3076171875t-0.52978515625-1.00830078125z M152.54521484375,42.1923828125q0-0.49560546875,0.042724609375-1.04248046875t0.076904296875-1.025390625l0.1025390625-2.5634765625q0.1708984375-3.076171875,0.418701171875-6.0498046875t0.418701171875-6.015625q0.1025390625-1.6748046875,0.15380859375-3.289794921875t0.15380859375-3.289794921875q-0.068359375-0.13671875-0.068359375-0.18798828125q0-0.2392578125,0.179443359375-0.3759765625t0.418701171875-0.230712890625t0.504150390625-0.128173828125t0.401611328125-0.0341796875l0.39306640625,0q0.52978515625,0.068359375,0.76904296875,0.333251953125t0.3076171875,0.63232421875t0.0341796875,0.7861328125t-0.0341796875,0.777587890625q0,2.47802734375-0.11962890625,5.050048828125t-0.2734375,5.1611328125t-0.281982421875,5.17822265625t-0.128173828125,5.118408203125l0,1.1962890625q0,0.80322265625-0.452880859375,1.0595703125t-1.256103515625,0.25634765625q-0.70068359375,0-1.23046875-0.3076171875t-0.52978515625-1.00830078125z M160.38381347656,36.826171875q0-1.1962890625,0.264892578125-2.81982421875t0.897216796875-3.076171875t1.666259765625-2.469482421875t2.606201171875-1.016845703125q1.4697265625,0,2.20458984375,0.845947265625t0.73486328125,2.281494140625q0,0.93994140625-0.350341796875,2.059326171875t-0.999755859375,2.119140625t-1.5380859375,1.666259765625t-1.982421875,0.66650390625l-0.4443359375-0.0341796875q0,0.46142578125,0.13671875,1.239013671875t0.401611328125,1.546630859375t0.68359375,1.35009765625t1.016845703125,0.5810546875q0.87158203125,0,1.6748046875-0.70068359375t1.52099609375-1.55517578125t1.3330078125-1.55517578125t1.1279296875-0.70068359375q0.2734375,0,0.56396484375,0.08544921875t0.32470703125,0.478515625q0,0.2392578125-0.128173828125,0.39306640625t-0.230712890625,0.341796875q-0.52978515625,0.90576171875-1.153564453125,1.72607421875t-1.409912109375,1.48681640625t-1.717529296875,1.051025390625t-2.059326171875,0.384521484375q-1.4697265625,0-2.44384765625-0.521240234375t-1.572265625-1.4013671875t-0.863037109375-2.03369140625t-0.264892578125-2.418212890625z M163.44289550781,35.52734375l0.478515625,0.42724609375q0.341796875,0.3076171875,0.68359375,0.13671875t0.615234375-0.623779296875t0.504150390625-1.119384765625t0.41015625-1.3671875t0.264892578125-1.3671875t0.08544921875-1.11083984375l0-0.5810546875t-0.05126953125-0.615234375t-0.179443359375-0.487060546875t-0.401611328125-0.247802734375q-0.08544921875-0.01708984375-0.15380859375-0.01708984375q-0.5810546875,0-0.9912109375,0.73486328125q-0.4443359375,0.8203125-0.7177734375,1.990966796875t-0.39306640625,2.401123046875t-0.15380859375,1.845703125z M174.66528320313,35.92041015625q0-1.3330078125,0.281982421875-2.418212890625t0.897216796875-1.837158203125t1.614990234375-1.170654296875t2.435302734375-0.418701171875q0.80322265625,0,1.640625,0.213623046875t1.435546875,0.794677734375q0-0.341796875,0.068359375-1.409912109375t0.1708984375-2.486572265625t0.213623046875-2.9736328125t0.196533203125-2.88818359375t0.15380859375-2.23876953125t0.1025390625-1.025390625q0.1708984375-0.49560546875,0.63232421875-0.589599609375t0.87158203125-0.093994140625q1.07666015625,0,1.324462890625,0.341796875t0.247802734375,1.3671875q0,3.74267578125-0.333251953125,7.451171875t-0.333251953125,7.451171875q0,2.40966796875,0.093994140625,4.844970703125t0.675048828125,4.793701171875l0.18798828125,0.1708984375l0.1025390625,0.3076171875l-0.25634765625,0.39306640625q-0.6494140625,0.41015625-1.50390625,0.41015625l-0.068359375,0q-0.87158203125,0-1.6064453125-0.41015625q-0.2734375-0.1708984375-0.452880859375-1.016845703125t-0.281982421875-1.86279296875t-0.15380859375-1.956787109375t-0.08544921875-1.3330078125q-0.59814453125,1.3671875-1.632080078125,2.349853515625t-2.606201171875,0.982666015625q-1.23046875,0-2.0166015625-0.52978515625t-1.221923828125-1.35009765625t-0.615234375-1.837158203125t-0.179443359375-2.025146484375z M176.73315429688,36.02294921875q0,0.39306640625,0.093994140625,1.162109375t0.299072265625,1.5380859375t0.572509765625,1.3671875t0.965576171875,0.59814453125q0.80322265625-0.39306640625,1.45263671875-1.307373046875t1.119384765625-2.0166015625t0.73486328125-2.20458984375t0.264892578125-1.905517578125q0-1.00830078125-0.73486328125-1.6748046875t-1.76025390625-0.66650390625q-0.3076171875,0-0.623779296875,0.11962890625t-0.589599609375,0.2734375q-0.63232421875,0.59814453125-0.982666015625,1.085205078125t-0.52978515625,1.00830078125t-0.230712890625,1.153564453125t-0.05126953125,1.4697265625z"/><path fill="#" d=""/></svg>
